<?xml version="1.0" standalone="no"?>
<!DOCTYPE svg PUBLIC "-//W3C//DTD SVG 20010904//EN"
 "http://www.w3.org/TR/2001/REC-SVG-20010904/DTD/svg10.dtd">
<svg version="1.0" xmlns="http://www.w3.org/2000/svg"
 width="512.000000pt" height="512.000000pt" viewBox="0 0 512.000000 512.000000"
 preserveAspectRatio="xMidYMid meet">
<metadata>
Created by potrace 1.14, written by Peter Selinger 2001-2017
</metadata>
<g transform="translate(0.000000,512.000000) scale(0.100000,-0.100000)"
fill="#000000" stroke="none">
<path d="M1356 4402 c-3 -6 -17 -9 -31 -7 -14 1 -25 -1 -25 -5 0 -4 -11 -6
-25 -5 -14 2 -25 -1 -25 -5 0 -5 -8 -9 -17 -9 -46 -2 -63 -6 -63 -14 0 -4 -4
-5 -10 -2 -5 3 -10 1 -10 -5 0 -6 -4 -8 -10 -5 -5 3 -10 1 -10 -5 0 -7 -7 -10
-15 -6 -8 3 -15 1 -15 -5 0 -6 -4 -8 -9 -5 -5 4 -11 1 -13 -4 -2 -6 -11 -12
-19 -13 -9 -2 -24 -10 -33 -20 -16 -16 -30 -21 -49 -18 -5 1 -6 -3 -2 -9 3 -5
2 -10 -4 -10 -5 0 -22 -13 -37 -29 -15 -17 -31 -28 -36 -25 -4 3 -8 1 -8 -4 0
-5 -21 -31 -47 -58 -27 -27 -39 -42 -28 -34 12 8 9 2 -7 -16 -16 -17 -28 -35
-28 -42 0 -7 -7 -12 -15 -12 -9 0 -12 -6 -9 -15 4 -8 1 -15 -6 -15 -6 0 -9 -4
-5 -9 3 -5 1 -12 -5 -16 -6 -4 -8 -10 -5 -15 3 -4 -3 -11 -12 -14 -15 -6 -15
-8 -3 -16 11 -7 12 -10 2 -10 -7 0 -10 -4 -7 -10 3 -5 1 -10 -5 -10 -6 0 -9
-4 -5 -9 3 -5 1 -12 -5 -16 -6 -4 -7 -11 -4 -17 4 -6 -1 -17 -11 -25 -11 -7
-14 -13 -9 -13 6 0 11 -7 11 -15 0 -8 -5 -15 -10 -15 -5 0 -7 -7 -3 -15 3 -8
0 -15 -6 -15 -7 0 -7 -4 1 -13 7 -9 7 -17 1 -23 -6 -6 -12 -37 -14 -70 -2 -32
-5 -59 -6 -59 -7 0 -3 -86 5 -89 6 -3 5 -5 -2 -5 -7 -1 -10 -8 -6 -17 3 -9 0
-20 -8 -25 -8 -5 -9 -9 -4 -9 14 0 18 -47 4 -55 -7 -5 -6 -11 2 -21 6 -8 8
-14 5 -14 -4 0 -2 -10 5 -21 6 -12 7 -19 1 -15 -5 3 -12 -1 -16 -9 -3 -8 -1
-17 4 -20 5 -3 8 -32 6 -65 -1 -33 1 -65 5 -71 4 -7 3 -22 -1 -34 -5 -14 -4
-27 3 -34 8 -8 7 -11 -4 -11 -12 0 -12 -2 1 -10 13 -8 13 -10 1 -10 -12 0 -12
-3 -3 -12 9 -9 7 -15 -6 -25 -9 -8 -12 -12 -6 -9 7 4 14 -6 16 -24 3 -17 0
-30 -6 -30 -6 0 -4 -5 4 -10 12 -8 12 -10 1 -10 -11 0 -11 -3 -1 -15 10 -12 9
-15 -6 -15 -12 0 -15 -3 -8 -8 16 -11 27 -75 11 -66 -8 5 -7 2 2 -9 11 -14 11
-17 0 -17 -11 0 -11 -2 1 -10 9 -6 11 -10 3 -10 -7 0 -10 -6 -8 -12 9 -27 12
-88 4 -88 -5 0 -9 -5 -9 -11 0 -5 4 -7 10 -4 6 4 7 -2 2 -17 -4 -13 -7 -42 -7
-65 1 -25 -3 -43 -9 -43 -8 0 -8 -3 0 -8 14 -9 14 -43 0 -61 -7 -10 -7 -13 0
-8 7 4 11 -10 11 -38 1 -31 -3 -43 -11 -38 -6 4 -5 -1 3 -10 11 -14 20 -94 22
-199 0 -10 6 -18 12 -18 7 0 6 -4 -3 -10 -8 -5 -10 -10 -3 -10 6 0 10 -13 9
-30 -1 -16 1 -30 6 -30 4 0 8 -9 8 -21 0 -13 4 -18 13 -13 9 6 9 5 0 -7 -10
-12 -10 -18 -1 -27 7 -7 8 -12 4 -12 -5 0 -1 -12 9 -26 11 -18 12 -24 4 -18
-11 6 -12 5 -2 -8 7 -8 10 -18 6 -21 -3 -4 -1 -7 6 -7 7 0 9 -5 6 -10 -3 -6
-2 -10 2 -10 5 0 10 -10 10 -22 1 -13 7 -24 13 -26 5 -2 10 -10 10 -18 0 -8 6
-14 13 -14 9 0 9 -2 0 -8 -9 -6 -5 -18 15 -47 15 -22 30 -42 35 -43 4 -2 5 -7
2 -12 -3 -5 2 -16 11 -24 8 -9 13 -16 10 -16 -6 0 15 -28 42 -55 6 -8 12 -16
12 -20 0 -4 18 -24 39 -45 21 -21 36 -41 33 -44 -3 -3 0 -6 7 -6 7 0 9 -4 6
-10 -3 -5 3 -10 15 -10 12 0 18 -5 15 -10 -3 -6 2 -10 11 -10 10 0 15 -3 11
-6 -7 -7 41 -54 55 -54 5 0 6 -4 3 -10 -3 -5 1 -10 9 -10 9 0 16 -4 16 -10 0
-5 5 -10 11 -10 7 0 19 -9 28 -19 10 -11 24 -21 31 -23 8 -2 23 -11 34 -21 11
-9 26 -17 33 -17 7 0 13 -4 13 -9 0 -5 7 -12 16 -15 10 -4 13 -2 8 6 -4 7 7 2
24 -11 18 -12 32 -19 32 -15 0 3 8 0 17 -7 14 -12 16 -12 8 0 -5 8 7 4 25 -9
18 -13 30 -19 26 -12 -8 13 6 17 17 5 11 -10 58 -13 52 -2 -10 15 2 10 16 -8
12 -14 12 -16 -1 -9 -9 4 -8 2 2 -7 10 -8 15 -17 11 -20 -3 -4 -1 -7 7 -7 10
0 10 -3 -1 -16 -9 -11 -9 -18 -2 -22 6 -4 9 -19 8 -34 -2 -16 1 -28 6 -28 6 0
7 -5 4 -10 -3 -5 -1 -10 5 -10 6 0 9 -4 6 -9 -7 -11 65 -91 81 -91 6 0 10 -16
9 -35 0 -19 -5 -35 -9 -35 -4 0 -3 -9 3 -20 9 -16 8 -22 -5 -26 -11 -5 -13
-10 -5 -19 8 -10 8 -15 0 -20 -8 -5 -7 -11 2 -23 10 -12 10 -14 1 -8 -8 4 -13
2 -14 -6 -1 -20 -7 -70 -12 -103 -3 -16 0 -36 7 -44 9 -12 7 -12 -14 -1 -22
12 -23 11 -13 -1 27 -32 -21 -86 -56 -64 -6 3 -11 2 -11 -2 0 -5 -9 -9 -20
-10 -11 -1 -20 4 -20 10 0 7 -4 6 -10 -3 -8 -12 -10 -12 -10 -1 0 9 -4 10 -12
4 -17 -13 -48 -12 -48 1 0 7 -3 7 -8 1 -10 -14 -32 -17 -32 -4 0 8 -4 8 -13 0
-10 -8 -17 -7 -27 2 -8 7 -11 8 -7 1 4 -8 -6 -14 -28 -18 -20 -4 -33 -11 -30
-16 3 -5 -4 -14 -15 -20 -11 -6 -18 -15 -15 -20 3 -5 1 -11 -4 -14 -21 -14 1
-81 37 -113 35 -33 60 -44 46 -21 -4 7 7 2 24 -11 28 -19 33 -20 38 -7 3 9 11
13 16 10 15 -9 98 -13 93 -4 -2 4 2 7 10 7 8 0 12 -3 11 -6 -2 -3 36 -6 85 -6
53 0 89 4 89 10 0 6 5 3 10 -5 9 -13 10 -13 10 0 0 9 3 11 8 5 4 -5 34 -10 67
-10 33 0 63 5 67 10 5 6 8 4 8 -5 0 -13 1 -13 10 0 5 8 10 11 10 5 0 -5 13
-10 29 -10 17 0 27 4 23 10 -3 6 2 4 11 -4 10 -8 17 -9 17 -3 0 7 10 8 31 2
26 -8 30 -7 25 7 -5 13 -4 14 9 3 9 -7 18 -10 22 -7 3 4 12 2 20 -4 8 -7 13
-8 13 -1 0 6 13 7 37 2 23 -6 42 -5 49 1 9 7 16 5 23 -8 10 -17 10 -17 11 0 0
11 5 15 11 11 16 -9 129 -12 123 -3 -5 9 30 4 46 -6 6 -3 10 0 10 7 0 9 3 9
10 -2 7 -11 10 -11 10 -2 0 7 5 10 11 7 5 -4 21 -8 35 -10 19 -2 24 1 19 13
-5 13 -3 13 11 1 19 -15 47 -22 39 -8 -4 5 1 6 9 3 27 -10 116 -9 116 1 0 6 4
4 9 -4 7 -11 9 -11 14 0 3 8 6 10 6 4 1 -13 111 -6 111 7 0 5 5 6 10 3 6 -3
10 -1 10 5 0 6 5 8 11 5 6 -4 13 2 16 14 3 12 9 21 14 21 4 0 8 8 8 17 0 10 2
30 4 45 2 16 -2 33 -9 39 -8 6 -14 17 -14 23 0 18 -60 44 -92 40 -16 -1 -28 2
-28 8 0 7 -5 7 -12 1 -15 -11 -58 -11 -75 0 -6 4 -14 3 -18 -3 -23 -37 -41 72
-20 122 4 9 4 22 0 28 -3 5 -2 10 4 10 5 0 8 8 6 18 -1 9 3 23 9 31 9 12 8 13
-4 6 -12 -7 -13 -6 -4 6 6 8 10 24 9 36 -1 13 3 23 9 23 6 0 4 5 -4 10 -8 5
-10 10 -4 10 10 0 14 14 14 56 0 11 6 21 13 21 24 1 42 8 55 23 10 11 11 11 6
1 -4 -7 7 -3 24 9 17 13 28 28 25 33 -3 6 -1 7 4 4 6 -4 17 1 24 10 12 14 12
16 -1 8 -13 -8 -13 -6 -1 8 7 9 18 14 24 10 6 -4 8 0 4 10 -3 9 -2 19 4 22 5
4 7 11 4 16 -4 5 -1 9 5 9 6 0 8 4 5 10 -3 5 -1 19 6 31 8 16 8 20 -1 14 -9
-6 -9 -3 -1 13 8 15 8 22 -2 25 -9 4 -9 6 1 6 7 1 10 6 6 13 -5 8 0 9 14 6 13
-4 22 -1 22 5 0 7 5 5 10 -3 9 -13 10 -13 10 0 0 9 3 11 8 5 8 -12 22 -13 40
-2 7 5 12 4 12 -3 0 -7 6 -8 19 0 11 5 22 6 25 2 6 -10 36 -9 53 1 6 4 13 1
16 -5 3 -10 7 -10 20 1 10 7 17 9 17 3 0 -11 18 -11 36 1 6 3 14 3 18 0 12
-12 56 -11 56 1 0 7 3 7 8 1 9 -13 84 -16 76 -3 -4 6 3 5 14 -1 14 -8 23 -8
27 -1 5 8 11 8 19 1 9 -7 16 -7 24 1 7 7 12 8 12 2 0 -5 9 -10 20 -10 11 0 20
3 20 6 0 3 9 6 20 6 11 0 20 -4 20 -9 0 -5 7 -4 15 3 10 8 15 9 15 1 0 -7 8
-8 25 -1 16 6 25 6 25 -1 0 -6 7 -6 19 1 13 7 22 7 26 0 3 -5 19 -10 34 -10
15 0 32 -5 39 -12 7 -7 12 -8 12 -4 0 5 11 1 25 -8 14 -9 25 -14 25 -11 0 9
22 -11 175 -161 79 -78 141 -145 137 -149 -4 -4 -2 -6 3 -5 22 5 35 -1 32 -12
-1 -7 4 -12 10 -11 7 2 12 -1 10 -5 -3 -11 50 -62 57 -55 3 4 6 1 6 -5 0 -14
47 -62 60 -62 6 0 10 -9 10 -20 0 -11 4 -19 8 -17 5 1 39 -28 76 -65 38 -38
72 -65 77 -62 5 2 17 1 26 -4 20 -10 46 -5 38 8 -3 5 2 16 11 24 9 9 11 16 4
16 -6 0 -8 5 -5 10 12 19 14 70 3 70 -7 0 -6 5 2 15 9 11 10 18 1 28 -6 8 -8
17 -4 21 10 10 13 36 3 36 -8 0 -5 43 5 59 3 6 2 11 -3 11 -5 0 -9 7 -9 15 0
8 4 15 9 15 5 0 5 7 0 17 -5 9 -6 29 -2 44 5 17 4 31 -3 38 -8 8 -7 11 4 11
12 0 12 2 -1 10 -12 8 -12 10 -1 10 10 0 11 3 2 13 -6 8 -8 17 -4 20 10 11 13
57 3 57 -6 0 -5 11 0 26 7 19 7 23 -2 18 -7 -5 -9 -2 -5 8 3 9 0 21 -6 28 -9
10 -9 11 1 6 6 -4 12 -2 12 3 0 6 -4 11 -9 11 -5 0 -8 11 -7 25 2 13 -1 22 -5
19 -8 -5 -10 0 -9 21 0 3 -4 11 -10 18 -6 6 -20 24 -31 40 -11 15 -25 25 -30
22 -5 -4 -9 3 -9 14 0 12 -4 21 -8 21 -5 0 -35 25 -68 55 -32 30 -66 55 -74
55 -13 0 -13 1 0 10 13 9 13 10 0 10 -19 0 -51 35 -42 46 4 4 2 4 -4 1 -6 -3
-20 2 -31 13 -12 10 -24 16 -27 13 -3 -4 -6 -1 -6 6 0 16 -26 42 -34 34 -3 -4
-6 1 -6 10 0 8 -9 19 -20 22 -11 4 -18 11 -15 16 4 5 -1 9 -10 9 -9 0 -13 5
-10 10 3 6 -1 10 -9 10 -9 0 -16 7 -16 15 0 8 -6 14 -12 12 -7 -1 -12 3 -11 8
0 6 -5 16 -13 23 -8 7 -14 10 -14 7 0 -4 -7 0 -15 9 -8 8 -15 20 -15 27 0 7
-3 10 -6 6 -3 -3 -19 10 -36 29 -16 19 -35 31 -41 27 -5 -3 -7 -2 -4 4 4 5 -5
20 -18 31 -14 12 -25 26 -25 32 0 5 -3 9 -8 7 -9 -2 -72 62 -72 74 0 5 -3 8
-7 7 -10 -3 -63 50 -63 63 0 6 -3 8 -7 6 -5 -3 -14 1 -21 9 -7 8 -10 14 -7 14
4 0 -14 17 -39 38 -24 20 -45 42 -45 48 -1 6 -9 18 -18 25 -14 12 -16 12 -9
-1 4 -8 -2 -4 -12 10 -31 38 -97 107 -87 91 5 -10 4 -12 -3 -7 -7 4 -12 14
-12 22 0 8 -5 12 -10 9 -5 -3 -10 1 -10 10 0 9 -4 14 -9 10 -5 -3 -12 4 -16
15 -3 11 -12 20 -20 20 -8 0 -17 9 -20 20 -3 11 -10 20 -15 20 -13 0 -59 48
-52 54 3 3 -2 6 -12 6 -9 0 -15 4 -12 9 3 5 -4 11 -16 14 -12 4 -19 9 -15 13
7 8 -44 50 -56 46 -5 -1 -6 2 -2 8 3 5 2 10 -4 10 -5 0 -12 9 -16 19 -4 13
-12 18 -22 14 -10 -4 -14 -2 -10 4 4 6 -9 25 -28 42 -20 17 -32 31 -28 32 4 0
-2 4 -15 10 -13 5 -21 12 -19 16 3 5 -1 14 -9 21 -8 7 -14 10 -14 7 0 -4 -7 0
-15 9 -8 8 -15 20 -15 27 0 7 -2 10 -5 7 -6 -6 -115 101 -115 113 0 4 -9 9
-20 12 -11 3 -20 12 -20 21 0 9 -4 16 -9 16 -5 0 -29 20 -54 44 -25 25 -48 42
-53 38 -4 -4 -4 -2 -1 5 4 6 -5 21 -19 32 -15 12 -23 21 -18 21 5 0 -3 8 -16
17 -14 10 -29 17 -33 15 -5 -1 -6 1 -3 6 3 5 -6 19 -19 30 -14 12 -25 27 -25
33 0 5 -4 8 -9 5 -5 -3 -16 6 -25 19 -9 14 -21 23 -26 20 -6 -4 -10 -1 -10 5
0 16 -106 120 -121 120 -7 0 -10 3 -6 6 3 4 -11 22 -31 41 -20 20 -36 39 -35
44 2 5 0 8 -5 6 -4 -1 -24 15 -44 36 -20 20 -34 37 -31 37 3 0 -5 8 -18 18
-12 11 -24 27 -26 38 -9 49 -10 64 -1 64 5 0 6 5 2 12 -4 7 -3 8 4 4 6 -4 20
-2 31 3 14 8 21 8 24 -2 4 -8 6 -8 6 0 1 7 12 9 31 7 17 -3 30 -1 30 3 0 14
44 13 52 0 6 -9 8 -9 8 0 0 7 7 10 15 7 9 -4 15 -1 15 7 0 10 3 10 12 1 8 -8
17 -8 31 -1 15 8 18 8 12 -1 -5 -9 -3 -9 11 -2 11 5 31 9 47 8 18 -1 26 3 23
11 -3 7 1 10 9 6 8 -3 12 -10 8 -17 -3 -6 3 -3 14 7 12 10 27 15 38 11 10 -4
21 -1 26 7 6 10 9 11 9 1 0 -9 8 -9 35 2 26 11 35 12 35 3 0 -9 2 -9 8 0 4 7
18 11 30 8 12 -2 25 1 28 7 5 7 2 8 -6 3 -9 -5 -11 -4 -6 3 5 9 13 9 26 2 13
-7 21 -7 25 0 4 6 10 8 15 5 4 -3 11 2 14 11 5 13 9 14 20 5 10 -8 16 -9 21
-1 3 6 11 8 16 5 5 -4 9 -1 9 5 0 6 5 8 10 5 6 -4 18 -1 27 7 13 10 15 10 9 0
-4 -7 9 -3 29 8 20 11 33 15 29 8 -6 -10 -5 -11 8 -1 8 7 18 10 21 6 4 -3 7
-1 7 6 0 6 6 11 13 10 6 -2 30 6 52 16 22 10 43 17 48 17 4 -1 7 4 7 12 0 8 7
16 15 20 13 4 13 9 3 25 -7 11 -16 17 -20 15 -4 -3 -8 0 -8 6 0 6 -4 8 -10 5
-5 -3 -10 -1 -10 5 0 6 -4 9 -9 6 -5 -3 -14 1 -21 9 -7 8 -16 12 -21 9 -5 -2
-27 4 -49 15 -22 10 -37 15 -34 10 3 -5 -11 0 -31 11 -20 11 -33 15 -30 9 4
-6 -5 -3 -21 7 -15 11 -25 14 -21 7 5 -7 1 -9 -13 -6 -10 3 -19 8 -18 12 2 18
-3 24 -11 12 -8 -12 -12 -12 -25 -2 -9 8 -16 10 -16 5 0 -4 -5 -3 -12 4 -14
14 -32 16 -23 2 3 -6 -1 -7 -9 -4 -9 3 -16 10 -16 16 0 5 -9 6 -20 3 -11 -4
-20 -2 -20 4 0 6 -5 11 -11 11 -5 0 -7 -4 -4 -10 3 -6 -1 -7 -9 -4 -9 3 -16
11 -16 17 0 8 -3 8 -11 0 -11 -11 -49 -6 -49 7 0 5 -9 6 -19 3 -10 -3 -27 0
-38 5 -12 7 -25 7 -35 1 -11 -6 -19 -5 -23 1 -5 8 -12 7 -23 -2 -9 -7 -13 -8
-9 -2 4 7 -2 14 -13 17 -12 3 -18 1 -14 -5 4 -6 -3 -5 -15 1 -11 7 -21 9 -21
5 0 -3 -6 -1 -13 5 -8 6 -16 8 -19 5 -10 -9 -60 -15 -54 -5 4 5 -8 6 -29 1
-22 -5 -35 -4 -35 2 0 6 -6 5 -15 -2 -8 -7 -15 -9 -15 -4 0 4 -5 3 -11 -3 -13
-13 -42 -6 -33 8 3 5 -2 6 -10 3 -9 -3 -23 6 -37 25 -13 17 -28 31 -34 31 -7
0 -20 11 -31 24 -10 14 -21 23 -26 20 -4 -3 -8 2 -8 11 0 9 -4 14 -9 11 -4 -3
-19 3 -32 15 -12 11 -29 17 -36 15 -7 -3 -12 0 -10 7 1 7 -4 11 -10 9 -7 -1
-13 2 -13 8 0 6 -9 10 -20 10 -11 0 -20 5 -20 10 0 6 -9 10 -20 10 -11 0 -20
4 -20 10 0 5 -7 7 -15 4 -8 -4 -15 -1 -15 5 0 6 -7 8 -15 5 -8 -4 -15 -1 -15
6 0 6 -5 8 -10 5 -6 -4 -17 -1 -25 5 -8 7 -21 10 -29 7 -7 -3 -19 0 -25 6 -6
6 -11 7 -11 3 0 -5 -8 -2 -17 5 -9 8 -14 9 -10 2 5 -7 0 -9 -13 -6 -11 3 -17
10 -13 17 4 7 1 6 -9 -1 -8 -7 -18 -10 -22 -6 -10 10 -46 11 -46 1 0 -5 -6 -6
-12 -2 -19 12 -48 12 -48 0 0 -6 -4 -5 -9 3 -6 10 -10 10 -16 1 -6 -10 -9 -10
-15 0 -5 8 -10 9 -14 2z m784 -3205 c0 10 41 10 58 -1 7 -4 12 -2 12 5 0 8 4
8 15 -1 10 -9 15 -9 15 -1 0 6 8 3 18 -6 10 -10 14 -21 9 -24 -6 -4 -5 -14 1
-24 5 -10 7 -27 4 -38 -3 -12 -1 -18 5 -14 5 3 10 0 10 -8 0 -8 -5 -15 -11
-15 -6 0 -3 -5 7 -11 9 -6 15 -14 12 -20 -4 -5 -1 -9 4 -9 6 0 11 -7 11 -15 0
-8 5 -15 10 -15 6 0 10 -7 10 -16 0 -8 5 -12 10 -9 6 3 13 -1 16 -9 3 -9 13
-16 21 -16 11 0 14 -9 10 -39 -2 -21 -7 -43 -11 -50 -4 -6 -2 -11 4 -11 6 0 8
-5 3 -12 -4 -7 -6 -20 -5 -30 2 -9 -2 -19 -7 -22 -6 -4 -7 -14 -4 -23 5 -11 3
-14 -6 -8 -10 6 -11 3 -1 -15 10 -18 9 -24 -1 -31 -8 -5 -10 -9 -5 -9 5 0 2
-8 -5 -17 -10 -11 -10 -14 -1 -9 6 4 12 2 12 -3 0 -6 -4 -11 -9 -11 -5 0 -7
-9 -4 -20 3 -13 0 -20 -8 -20 -11 0 -11 -2 1 -10 13 -9 13 -10 0 -10 -13 0
-13 -1 0 -10 11 -7 11 -10 2 -10 -7 0 -11 -4 -7 -9 7 -13 -32 -34 -47 -25 -6
4 -8 3 -5 -3 7 -11 -76 -8 -95 3 -6 4 -8 3 -4 -4 4 -7 -1 -10 -14 -9 -11 1
-20 5 -20 10 0 4 -6 5 -12 1 -18 -11 -148 -12 -148 -1 0 4 -6 5 -12 0 -17 -10
-68 -11 -74 -1 -3 4 -13 4 -22 -1 -12 -6 -23 -3 -36 10 -12 11 -14 19 -7 19 7
0 9 5 6 10 -4 6 -1 18 7 27 8 10 8 14 1 10 -6 -4 -14 -3 -17 2 -3 5 1 12 9 15
13 5 14 10 4 27 -9 17 -8 20 2 14 9 -6 11 -4 6 7 -3 9 -3 19 1 23 3 3 7 18 8
33 1 15 2 37 3 50 1 16 5 21 14 16 9 -6 9 -5 0 8 -7 8 -10 18 -7 21 4 4 8 17
9 29 1 13 3 28 4 35 1 13 56 43 78 43 7 0 13 5 13 11 0 5 5 7 10 4 6 -3 10 -1
10 5 0 6 5 8 10 5 6 -3 10 -1 10 4 0 19 4 26 29 49 13 12 21 22 17 22 -3 0 1
14 10 31 9 18 11 28 4 24 -9 -6 -9 -2 -1 14 7 12 9 26 6 31 -3 6 -1 10 5 10 8
0 8 6 0 20 -9 16 -8 20 5 20 8 0 15 5 15 11 0 8 5 8 15 -1 8 -7 15 -8 15 -3z
m-896 -763 c3 -8 2 -12 -4 -9 -6 3 -10 10 -10 16 0 14 7 11 14 -7z"/>
</g>
</svg>
